<?xml version="1.0" encoding="UTF-8" standalone="no"?>
<svg
   xmlns:dc="http://purl.org/dc/elements/1.1/"
   xmlns:cc="http://creativecommons.org/ns#"
   xmlns:rdf="http://www.w3.org/1999/02/22-rdf-syntax-ns#"
   xmlns:svg="http://www.w3.org/2000/svg"
   xmlns="http://www.w3.org/2000/svg"
   xmlns:sodipodi="http://sodipodi.sourceforge.net/DTD/sodipodi-0.dtd"
   xmlns:inkscape="http://www.inkscape.org/namespaces/inkscape"
   id="b76bd6b3-ad77-41ff-b778-1d1d054fe577"
   data-name="Layer 1"
   width="570"
   height="511.67482"
   viewBox="0 0 570 511.67482"
   version="1.1"
   sodipodi:docname="mail_sent2.svg"
   inkscape:version="1.0.2-2 (e86c870879, 2021-01-15)">
  <metadata
     id="metadata264">
    <rdf:RDF>
      <cc:Work
         rdf:about="">
        <dc:format>image/svg+xml</dc:format>
        <dc:type
           rdf:resource="http://purl.org/dc/dcmitype/StillImage" />
        <dc:title></dc:title>
      </cc:Work>
    </rdf:RDF>
  </metadata>
  <defs
     id="defs262" />
  <sodipodi:namedview
     pagecolor="#ffffff"
     bordercolor="#666666"
     borderopacity="1"
     objecttolerance="10"
     gridtolerance="10"
     guidetolerance="10"
     inkscape:pageopacity="0"
     inkscape:pageshadow="2"
     inkscape:window-width="1600"
     inkscape:window-height="837"
     id="namedview260"
     showgrid="false"
     inkscape:zoom="1.5021831"
     inkscape:cx="222.63848"
     inkscape:cy="153.48736"
     inkscape:window-x="-8"
     inkscape:window-y="-8"
     inkscape:window-maximized="1"
     inkscape:current-layer="b76bd6b3-ad77-41ff-b778-1d1d054fe577" />
  <path
     d="M879.99927,389.83741a.99678.99678,0,0,1-.5708-.1792L602.86963,197.05469a5.01548,5.01548,0,0,0-5.72852.00977L322.57434,389.65626a1.00019,1.00019,0,0,1-1.14868-1.6377l274.567-192.5918a7.02216,7.02216,0,0,1,8.02-.01318l276.55883,192.603a1.00019,1.00019,0,0,1-.57226,1.8208Z"
     transform="translate(-315 -194.16259)"
     fill="#3f3d56"
     id="path243" />
  <polygon
     points="23.264 202.502 285.276 8.319 549.276 216.319 298.776 364.819 162.776 333.819 23.264 202.502"
     fill="#e6e6e6"
     id="polygon245" />
  <path
     d="M489.25553,650.70367H359.81522a6.04737,6.04737,0,1,1,0-12.09473H489.25553a6.04737,6.04737,0,1,1,0,12.09473Z"
     transform="translate(-315 -194.16259)"
     fill="#01bf71"
     id="path247" />
  <path
     d="M406.25553,624.70367H359.81522a6.04737,6.04737,0,1,1,0-12.09473h46.44031a6.04737,6.04737,0,1,1,0,12.09473Z"
     transform="translate(-315 -194.16259)"
     fill="#01bf71"
     id="path249" />
  <path
     d="M603.96016,504.82207a7.56366,7.56366,0,0,1-2.86914-.562L439.5002,437.21123v-209.874a7.00817,7.00817,0,0,1,7-7h310a7.00818,7.00818,0,0,1,7,7v210.0205l-.30371.12989L606.91622,504.22734A7.61624,7.61624,0,0,1,603.96016,504.82207Z"
     transform="translate(-315 -194.16259)"
     fill="#fff"
     id="path251" />
  <path
     d="M603.96016,505.32158a8.07177,8.07177,0,0,1-3.05957-.59863L439.0002,437.54521v-210.208a7.50851,7.50851,0,0,1,7.5-7.5h310a7.50851,7.50851,0,0,1,7.5,7.5V437.68779l-156.8877,66.999A8.10957,8.10957,0,0,1,603.96016,505.32158Zm-162.96-69.1123,160.66309,66.66455a6.1182,6.1182,0,0,0,4.668-.02784l155.669-66.47851V227.33721a5.50653,5.50653,0,0,0-5.5-5.5h-310a5.50653,5.50653,0,0,0-5.5,5.5Z"
     transform="translate(-315 -194.16259)"
     fill="#3f3d56"
     id="path253" />
  <path
     d="M878,387.83741h-.2002L763,436.85743l-157.06982,67.07a5.06614,5.06614,0,0,1-3.88038.02L440,436.71741l-117.62012-48.8-.17968-.08H322a7.00778,7.00778,0,0,0-7,7v304a7.00779,7.00779,0,0,0,7,7H878a7.00779,7.00779,0,0,0,7-7v-304A7.00778,7.00778,0,0,0,878,387.83741Zm5,311a5.002,5.002,0,0,1-5,5H322a5.002,5.002,0,0,1-5-5v-304a5.01106,5.01106,0,0,1,4.81006-5L440,438.87739l161.28027,66.92a7.12081,7.12081,0,0,0,5.43994-.03L763,439.02741l115.2002-49.19a5.01621,5.01621,0,0,1,4.7998,5Z"
     transform="translate(-315 -194.16259)"
     fill="#3f3d56"
     id="path255" />
  <path
     d="M602.345,445.30958a27.49862,27.49862,0,0,1-16.5459-5.4961l-.2959-.22217-62.311-47.70752a27.68337,27.68337,0,1,1,33.67407-43.94921l40.36035,30.94775,95.37793-124.38672a27.68235,27.68235,0,0,1,38.81323-5.12353l-.593.80517.6084-.79346a27.71447,27.71447,0,0,1,5.12353,38.81348L624.36938,434.50586A27.69447,27.69447,0,0,1,602.345,445.30958Z"
     transform="translate(-315 -194.16259)"
     fill="#01bf71"
     id="path257" />
  <path
     style="fill:#ffffff;stroke-width:0.358859"
     d=""
     id="path270" />
  <path
     style="fill:#ffffff;stroke-width:0.358859"
     d=""
     id="path272" />
  <path
     style="fill:#ffffff;stroke-width:0.358859"
     d=""
     id="path274" />
  <path
     style="fill:#ffffff;stroke-width:0.358859"
     d="m 125.96841,137.414 c 0,-57.534045 0.0414,-81.070699 0.0921,-52.303677 0.0507,28.767027 0.0507,75.840327 0,104.607357 -0.0507,28.76702 -0.0921,5.23036 -0.0921,-52.30368 z"
     id="path276" />
  <path
     style="fill:#ffffff;stroke-width:0.358859"
     d="m 125.95909,221.92526 c -5e-5,-11.05286 0.0455,-15.62631 0.10117,-10.16324 0.0557,5.46307 0.0557,14.50631 9e-5,20.09609 -0.0556,5.58978 -0.1012,1.12 -0.10126,-9.93285 z"
     id="path278" />
  <path
     style="fill:#ffffff;stroke-width:0.358859"
     d="m 568.23678,323.57202 c 0,-117.23819 -0.0341,-123.96312 -0.62801,-125.14487 -0.71833,-1.42976 -2.67726,-2.87802 -3.89283,-2.87802 -0.45471,0 -2.08604,0.55056 -3.62526,1.22347 -1.53918,0.67291 -61.49886,26.28394 -133.24371,56.9134 -71.74486,30.62946 -131.70454,56.23971 -133.24373,56.91167 -4.96259,2.16647 5.59845,6.16514 -106.36829,-40.27369 C 132.20862,247.5015 87.052284,228.70695 86.887544,228.55831 c -0.16474,-0.14863 -0.245483,-0.57915 -0.179429,-0.9567 0.106073,-0.6063 2.25726,0.20384 18.421895,6.93774 10.06599,4.19332 18.50366,7.63259 18.75038,7.64282 0.35726,0.0148 0.44857,-13.10003 0.44857,-64.42805 v -64.44666 l -2.24287,1.59496 c -6.86621,4.88274 -35.173599,24.66473 -35.294426,24.66473 -0.07859,0 -0.142881,-0.3875 -0.142881,-0.86111 0,-0.73024 2.863446,-2.86881 18.840087,-14.07075 l 18.84009,-13.20964 V 87.995654 c 0,-23.18299 0.008,-23.43 0.717,-23.43 0.7146,0 0.71731,0.298875 0.80744,88.833886 l 0.0904,88.83389 80.91495,33.57476 c 74.62603,30.96523 81.04107,33.56226 82.53753,33.414 1.10506,-0.10948 26.5422,-10.79481 79.75227,-33.50137 l 78.12969,-33.34061 0.0118,-88.90728 c 0.0118,-88.664095 0.0138,-88.907276 0.72956,-88.907276 0.71057,0 0.71772,0.23924 0.71772,23.987924 0,22.396522 0.0417,24.024472 0.628,24.538842 0.3454,0.30301 26.54658,18.59019 58.22485,40.63817 31.67826,22.04799 58.32353,40.69021 59.2117,41.42715 0.88818,0.73694 1.89722,1.89354 2.2423,2.57022 0.5938,1.16431 0.6275,7.89829 0.628,125.48521 0,124.01583 0,124.25487 -0.71714,124.25487 -0.71632,0 -0.71772,-0.23943 -0.71829,-123.89602 z M 482.29066,228.3008 c 17.96088,-7.68045 43.36378,-18.53768 56.45093,-24.12718 13.08712,-5.5895 23.66448,-10.28283 23.50526,-10.42962 -0.31626,-0.29152 -112.33054,-78.27486 -113.06092,-78.712 -0.35818,-0.21437 -0.44857,12.61488 -0.44857,63.66798 0,51.0089 0.0907,63.89892 0.44857,63.75087 0.24671,-0.10208 15.14384,-6.46959 33.10473,-14.15005 z"
     id="path280" />
  <path
     style="fill:#ffffff;stroke-width:0.358859"
     d="m 125.48677,65.014228 c -0.0447,-0.246716 -0.32802,-0.448574 -0.62966,-0.448574 -0.48568,0 -0.537,-1.94312 -0.44857,-16.9827 l 0.0999,-16.982699 0.96277,-1.454424 c 0.62718,-0.947466 1.62114,-1.782509 2.85161,-2.395678 l 1.88885,-0.941254 h 58.09085 58.09085 L 263.742,13.632348 c 9.54175,-6.6971031 17.8385,-12.429873 18.43723,-12.7394888 1.46029,-0.75514172 4.26915,-0.71481537 5.80325,0.083316 0.68319,0.3554396 9.04993,6.0882097 18.59276,12.7394888 l 17.35059,12.093235 h 59.36701 c 52.85997,0 59.51325,0.06109 60.70121,0.557325 1.6824,0.702779 3.1775,2.111637 4.0585,3.8244 0.6447,1.253366 0.68486,2.300057 0.68486,17.853227 0,14.44681 -0.0676,16.521803 -0.53829,16.521803 -0.29606,0 -0.57415,0.201858 -0.61797,0.448574 -0.0438,0.246715 -0.16493,-7.23482 -0.26914,-16.625632 l -0.18947,-17.074208 -1.00541,-1.317686 c -0.55298,-0.724728 -1.47351,-1.559747 -2.04562,-1.855597 -0.91964,-0.475565 -19.19164,-0.537911 -157.64684,-0.537911 H 129.81798 l -1.18636,0.807432 c -0.6525,0.444088 -1.52419,1.263164 -1.93708,1.82017 -0.73042,0.985358 -0.75579,1.475283 -0.93863,18.122369 -0.10335,9.410302 -0.22447,16.907778 -0.26914,16.661063 z M 320.25602,25.186875 C 297.9527,9.5512136 286.97068,2.1041724 285.9279,1.9085453 285.15883,1.7642668 284.17935,1.8762682 283.34541,2.2038485 282.1287,2.6817858 249.5707,25.286679 249.5707,25.653498 c 0,0.08547 16.10383,0.155401 35.7863,0.155401 34.05319,0 35.74333,-0.03012 34.89902,-0.622024 z"
     id="path282" />
  <path
     style="fill:#ffffff;stroke-width:0.358859"
     d="m 0.08443904,301.68163 c 0.08630717,-94.95019 0.13846985,-102.8048 0.68933809,-103.79992 0.96779147,-1.74826 2.62418417,-3.084 4.66705987,-3.76359 1.4066276,-0.46793 12.38053,-7.97889 41.388624,-28.32795 35.988019,-25.24545 39.491666,-27.61877 39.66915,-26.87134 0.210862,0.88802 4.884389,-2.46901 -56.714945,40.73872 -11.348911,7.96048 -20.6732691,14.59079 -20.720796,14.73402 -0.047527,0.14323 17.433384,7.52314 38.846469,16.39981 21.413086,8.87667 38.921533,16.2243 38.907659,16.32808 -0.194602,1.45576 -0.09565,1.49305 -40.141042,-15.12525 -21.795387,-9.0448 -39.9791062,-16.44508 -40.4082644,-16.44508 -1.1742597,0 -3.139121,1.47017 -3.8464544,2.87802 -0.5929654,1.18023 -0.6274759,6.87408 -0.628003,103.61334 L 1.7926766,404.40498 H 0.89187144 -0.00893373 Z"
     id="path284" />
  <path
     style="fill:#ffffff;stroke-width:0.358859"
     d="M 3.9492219,510.67913 C 2.090114,509.68208 0.78215106,507.84371 0.3643138,505.64046 0.12670457,504.38756 -0.00161764,486.29897 -0.00161764,454.05795 V 404.40498 H 0.89189315 1.785404 l 0.093351,51.11112 c 0.093254,51.05791 0.094125,51.11217 0.8365781,52.12425 0.4087751,0.55721 1.2969507,1.29547 1.9737237,1.64057 1.1683604,0.59576 15.3197042,0.62744 280.2432432,0.62744 264.91656,0 279.07584,-0.0317 280.26162,-0.62744 0.68685,-0.3451 1.6154,-1.17616 2.06344,-1.84681 l 0.81457,-1.21936 0.0738,-32.51337 c 0.0406,-17.88235 0.12765,-31.10036 0.19343,-29.37336 0.0924,2.4271 0.23605,3.14002 0.63252,3.14002 0.4091,0 0.53592,-0.85341 0.62657,-4.21659 0.0625,-2.31913 0.14483,10.80165 0.18295,29.15728 0.066,31.81033 0.0381,33.44112 -0.59532,34.80931 -0.77352,1.67075 -2.30279,3.20254 -3.73902,3.74518 -0.71061,0.26849 -83.94024,0.38169 -280.63321,0.38169 -271.666318,0 -279.6583165,-0.0189 -280.8644081,-0.66578 z"
     id="path286" />
  <path
     style="fill:#ffffff;stroke-width:0.665698"
     d="m 5.6209964,510.4872 c -0.9153345,-0.1642 -1.9638085,-0.59395 -2.3299423,-0.95499 -0.4384855,-0.43239 0.015939,-0.51241 1.3313956,-0.23446 1.7613552,0.37216 1.8399346,0.32866 0.6656978,-0.3685 -0.7322676,-0.43477 -1.7058506,-1.25984 -2.1635179,-1.8335 C 2.4643629,506.26814 2.2925074,474.40738 2.2925074,352.82639 V 199.60006 l 1.379712,-1.75402 c 0.7588416,-0.96471 1.7676673,-1.75402 2.2418346,-1.75402 0.4741674,0 4.625825,1.57271 9.225906,3.49491 l 8.363784,3.49492 66.079626,62.24274 c 36.34379,34.23351 67.68809,63.71344 69.65401,65.51095 l 3.57439,3.2682 68.02455,15.50573 68.02456,15.50574 124.81834,-73.95165 c 68.65008,-40.6734 125.07533,-74.18257 125.38943,-74.46481 0.3141,-0.28224 -2.01568,-2.53967 -5.17729,-5.01652 -3.16162,-2.47684 -5.51556,-4.70279 -5.23098,-4.94653 0.86815,-0.74361 24.42461,-10.65161 25.31465,-10.64751 0.45767,0.002 1.43125,0.60296 2.16352,1.33522 1.32372,1.32373 1.33139,2.219 1.33139,155.33727 0,145.84184 -0.0618,154.05966 -1.16497,155.02072 -0.64073,0.55817 -1.61432,1.18008 -2.16352,1.38201 -0.64295,0.23641 -0.45115,0.38588 0.53857,0.41972 0.84562,0.0289 1.35202,0.35203 1.12568,0.71825 -0.40634,0.65748 -556.5273099,0.84196 -560.1847036,0.18582 z M 418.79866,509.80212 c -73.89734,-0.0933 -194.62163,-0.0933 -268.27621,0 -73.654594,0.0933 -13.19314,0.16968 134.35877,0.16968 147.55192,0 207.81477,-0.0764 133.91744,-0.16968 z M 177.27448,456.09694 c 3.62177,-1.8729 4.42299,-6.41731 1.70162,-9.65147 l -1.72342,-2.04817 H 109.78065 42.308619 l -1.852661,1.59359 c -3.322415,2.85782 -2.142473,8.68432 2.111266,10.42534 0.732268,0.29971 30.928221,0.56392 67.102116,0.58713 55.6819,0.0358 66.0521,-0.10332 67.60514,-0.90642 z M 93.793755,430.14115 c 2.681145,-1.12025 3.693538,-2.7742 3.693538,-6.03413 0,-1.66476 -0.502442,-2.90641 -1.633988,-4.03795 l -1.633982,-1.63398 H 68.263972 42.308619 l -1.852661,1.59359 c -3.322415,2.85782 -2.142473,8.68432 2.111266,10.42534 0.732268,0.29971 12.050431,0.56392 25.151475,0.58712 19.107723,0.0339 24.266182,-0.14419 26.075056,-0.89999 z"
     id="path300" />
  <path
     style="fill:#ffffff;stroke-width:0.665698"
     d="m 492.37091,171.07663 -42.72948,-33.66945 v -10.63874 c 0,-7.22503 0.22311,-10.50084 0.69531,-10.20901 0.38242,0.23635 25.02156,17.37022 54.75364,38.07526 29.73209,20.70504 54.57808,38.00401 55.21333,38.44214 0.98385,0.67858 -0.74234,1.60398 -11.64971,6.24533 -7.04259,2.99679 -12.97321,5.44313 -13.17915,5.43632 -0.20596,-0.007 -19.60273,-15.16364 -43.10394,-33.68185 z"
     id="path302" />
  <path
     style="fill:#ffffff;stroke-width:0.665698"
     d="m 17.404491,197.58634 c -5.804185,-2.45907 -7.022325,-3.20579 -6.32413,-3.87669 0.699159,-0.67181 97.824929,-68.90922 109.207079,-76.72534 l 3.16207,-2.17138 v 6.54534 6.54534 l -48.938506,36.25772 c -26.916177,19.94175 -49.158805,36.30566 -49.428061,36.36423 -0.269258,0.0586 -3.724561,-1.26407 -7.678452,-2.93922 z"
     id="path304" />
  <path
     style="fill:#ffffff;stroke-width:0.665698"
     d=""
     id="path306" />
  <path
     style="fill:#ffffff;stroke-width:0.665698"
     d="m 206.49788,275.09232 -80.38043,-33.4 -0.003,-104.3048 c -0.002,-67.486674 0.23091,-104.918907 0.65888,-106.044569 1.46681,-3.857996 -4.6,-3.657913 116.31355,-3.836006 L 354.1138,27.343415 241.61087,27.004777 c -79.01221,-0.23783 -95.05231,-0.387319 -53.88233,-0.502168 50.3354,-0.140417 58.80323,-0.301668 59.9128,-1.140905 1.4949,-1.130688 2.55655,-1.32265 1.9579,-0.35402 -1.10483,1.787655 2.10038,-0.237091 17.38339,-10.981156 9.11196,-6.4057698 17.2015,-11.64814 17.97675,-11.6497117 0.77526,-0.00157 8.98523,5.2562685 18.24439,11.6840897 11.3731,7.895343 16.99353,11.430184 17.32397,10.895522 0.36395,-0.5889 0.88627,-0.513253 2.04109,0.295614 1.40764,0.985947 7.09805,1.087037 61.18941,1.087037 51.67033,0 59.81007,0.131828 60.92965,0.986791 1.20264,0.918397 1.13072,0.962094 -1.03774,0.630465 l -2.32994,-0.356326 2.07408,0.96404 c 1.30842,0.608153 2.35286,1.763707 2.82922,3.13021 0.55057,1.57938 0.75513,30.333246 0.75513,106.146391 v 103.98023 l -78.18554,33.38703 c -44.87539,19.16283 -78.97994,33.36518 -80.05016,33.33573 -1.02554,-0.0282 -38.03582,-15.08131 -82.24506,-33.45132 z m 89.57703,-25.08914 c 5.15714,-1.59288 9.85145,-4.95198 13.9401,-9.97511 12.56048,-15.43121 113.53595,-148.173775 114.79981,-150.916071 2.49577,-5.415232 3.2586,-10.76185 2.31803,-16.246834 -2.07394,-12.094274 -11.13525,-21.176118 -23.25017,-23.302834 -8.08673,-1.419588 -17.32038,1.45327 -23.42034,7.286753 -1.78733,1.709254 -24.43754,30.817406 -50.33379,64.684786 -25.89624,33.86737 -47.2925,61.8093 -47.54723,62.09316 -0.25474,0.28387 -9.87686,-6.71203 -21.3825,-15.54644 -11.50564,-8.83441 -22.07596,-16.6537 -23.48959,-17.37621 -9.73992,-4.97805 -22.85562,-3.25032 -31.22041,4.11267 -6.53345,5.75097 -9.39603,12.76714 -9.0435,22.16553 0.19455,5.18653 0.54601,6.79332 2.28692,10.45537 1.13138,2.37987 2.89136,5.31362 3.91107,6.51944 2.17255,2.5691 65.85333,51.52132 70.23828,53.99305 6.36419,3.58742 14.72186,4.36044 22.19332,2.05274 z m 16.20434,-224.159163 -4.55547,-0.234294 -10.98507,-8.669266 c -6.35591,-5.016005 -11.37398,-8.5200226 -11.90798,-8.3151075 -0.50761,0.1947879 -5.96658,4.0945695 -12.13105,8.6661815 l -11.20813,8.312023 -4.28191,0.239496 c -2.35505,0.131723 10.09716,0.238544 27.67158,0.237379 17.57443,-0.0011 29.90354,-0.10755 27.39803,-0.236412 z"
     id="path308" />
</svg>
