<?xml version="1.0" encoding="UTF-8" standalone="no"?>
<svg
   xmlns:dc="http://purl.org/dc/elements/1.1/"
   xmlns:cc="http://creativecommons.org/ns#"
   xmlns:rdf="http://www.w3.org/1999/02/22-rdf-syntax-ns#"
   xmlns:svg="http://www.w3.org/2000/svg"
   xmlns="http://www.w3.org/2000/svg"
   xmlns:sodipodi="http://sodipodi.sourceforge.net/DTD/sodipodi-0.dtd"
   xmlns:inkscape="http://www.inkscape.org/namespaces/inkscape"
   id="bf59fb71-ac1e-4020-97b5-5970fed6e003"
   data-name="Layer 1"
   width="561"
   height="493"
   viewBox="0 0 561 493"
   version="1.1"
   sodipodi:docname="mail2.svg"
   inkscape:version="1.0.2-2 (e86c870879, 2021-01-15)">
  <metadata
     id="metadata148">
    <rdf:RDF>
      <cc:Work
         rdf:about="">
        <dc:format>image/svg+xml</dc:format>
        <dc:type
           rdf:resource="http://purl.org/dc/dcmitype/StillImage" />
        <dc:title></dc:title>
      </cc:Work>
    </rdf:RDF>
  </metadata>
  <defs
     id="defs146" />
  <sodipodi:namedview
     pagecolor="#ffffff"
     bordercolor="#666666"
     borderopacity="1"
     objecttolerance="10"
     gridtolerance="10"
     guidetolerance="10"
     inkscape:pageopacity="0"
     inkscape:pageshadow="2"
     inkscape:window-width="1600"
     inkscape:window-height="837"
     id="namedview144"
     showgrid="false"
     inkscape:zoom="3.1295785"
     inkscape:cx="116.15994"
     inkscape:cy="323.18764"
     inkscape:window-x="-8"
     inkscape:window-y="-8"
     inkscape:window-maximized="1"
     inkscape:current-layer="bf59fb71-ac1e-4020-97b5-5970fed6e003" />
  <path
     d="M876.03027,689.45c-.98047,1.37-1.97021,2.73-2.95019,4.08A16.82838,16.82838,0,0,1,863.5,696.5h-527a16.90383,16.90383,0,0,1-9.21-2.72c-.91016-1.2-1.81006-2.41-2.72022-3.62006l.91016-.5L592.27,541.78a16.01919,16.01919,0,0,1,15.47021-.02L875.12988,688.95Z"
     transform="translate(-319.5 -203.5)"
     fill="#01bf71"
     id="path123" />
  <path
     d="M863.5,378.5,632.28169,244.96964a64.023,64.023,0,0,0-63.98147-.03153L336.5,378.5a17.0241,17.0241,0,0,0-17,17v284a17.01984,17.01984,0,0,0,17,17h527a17.02879,17.02879,0,0,0,17-17v-284A17.02408,17.02408,0,0,0,863.5,378.5Zm15,301a15.03649,15.03649,0,0,1-15,15h-527a15.02706,15.02706,0,0,1-15-15v-284a15.01828,15.01828,0,0,1,15-15L568.30022,246.93811a64.023,64.023,0,0,1,63.98147.03153L863.5,380.5a15.01828,15.01828,0,0,1,15,15Z"
     transform="translate(-319.5 -203.5)"
     fill="#3f3d56"
     id="path125" />
  <path
     d="M600.2998,539.18018a15.36345,15.36345,0,0,1-5.116-.8584l-.30249-.10694-.06128-.67236c-.18848.09277-.37866.18164-.56909.26563l-.20118.08837-.20141-.08886c-.42139-.18506-.83985-.39453-1.24365-.62207L408.5,433.73242V222.5A18.5208,18.5208,0,0,1,427,204H773a18.5208,18.5208,0,0,1,18.5,18.5V434.00244l-.25488.14356-183.25,103.04A15.75694,15.75694,0,0,1,600.2998,539.18018Z"
     transform="translate(-319.5 -203.5)"
     fill="#fff"
     id="path127" />
  <path
     d="M600.2998,539.68018a15.85649,15.85649,0,0,1-5.282-.88672l-.60547-.21338-.02588-.28565-.33691.14795-.40234-.17676c-.43653-.19189-.86963-.40869-1.28784-.64453L408,434.02539V222.5a19.02154,19.02154,0,0,1,19-19H773a19.02162,19.02162,0,0,1,19,19V434.29492L608.24,537.62158A16.2527,16.2527,0,0,1,600.2998,539.68018Zm-4.01342-2.57666a14.49247,14.49247,0,0,0,10.97436-1.22559L790,433.125V222.5a17.01917,17.01917,0,0,0-17-17H427a17.01909,17.01909,0,0,0-17,17V432.85449l11.98962,6.7334,171.35047,96.29053q.34973.197.71.3706.36035-.17358.70923-.37011l1.34668-.75879Z"
     transform="translate(-319.5 -203.5)"
     fill="#3f3d56"
     id="path129" />
  <path
     d="M876.06982,385.88,803.5,426.68,791,433.71,607.75,536.75a15.24213,15.24213,0,0,1-7.4502,1.93,14.91079,14.91079,0,0,1-4.9497-.83,12.05366,12.05366,0,0,1-1.3003-.5q-.61449-.27-1.1997-.6L421.5,440.46,409,433.44l-84.91992-47.72a1.011,1.011,0,0,1-.37988-1.37.99933.99933,0,0,1,1.35986-.38L409,431.14l12.5,7.02L593.83008,535a13.07441,13.07441,0,0,0,1.77978.83c.26026.1.53028.19.8003.27A13.26424,13.26424,0,0,0,606.77,535L791,431.42l12.5-7.03,71.58984-40.25a.99849.99849,0,1,1,.98,1.74Z"
     transform="translate(-319.5 -203.5)"
     fill="#3f3d56"
     id="path131" />
  <path
     d="M483.5748,269.5h-28a8,8,0,0,1,0-16h28a8,8,0,0,1,0,16Z"
     transform="translate(-319.5 -203.5)"
     fill="#01bf71"
     id="path133" />
  <path
     d="M516.5748,296.5h-61a8,8,0,0,1,0-16h61a8,8,0,0,1,0,16Z"
     transform="translate(-319.5 -203.5)"
     fill="#e6e6e6"
     id="path135" />
  <path
     d="M687,368.5H514a8,8,0,0,1,0-16H687a8,8,0,0,1,0,16Z"
     transform="translate(-319.5 -203.5)"
     fill="#01bf71"
     id="path137" />
  <path
     d="M703,399.5H497a8,8,0,0,1,0-16H703a8,8,0,0,1,0,16Z"
     transform="translate(-319.5 -203.5)"
     fill="#e6e6e6"
     id="path139" />
  <path
     d="M703,429.5H497a8,8,0,0,1,0-16H703a8,8,0,0,1,0,16Z"
     transform="translate(-319.5 -203.5)"
     fill="#e6e6e6"
     id="path141" />
  <path
     style="fill:#ffffff;stroke-width:0.319532"
     d="m 0.27057069,303.2749 c 0,-125.88548 -0.18322732,-114.9214 1.99256601,-119.23253 2.3662797,-4.68855 8.7248963,-8.79797 13.6133493,-8.79797 0.862995,0 8.641149,-4.34957 36.998539,-20.68969 l 35.905822,-20.68969 2.3e-5,-28.83775 2.2e-5,-28.837744 h 0.798168 0.798172 l 0.08054,76.113794 0.08054,76.11379 2.076957,1.18197 c 31.903101,18.15557 182.693401,102.53545 183.235071,102.53545 0.41911,0 0.81067,0.14597 0.87013,0.32437 0.0595,0.17841 1.00467,0.4911 2.10044,0.69488 2.29389,0.42659 5.13513,0.0419 7.47165,-1.01153 0.76829,-0.34641 42.52065,-23.75676 92.783,-52.02302 l 91.38612,-51.39318 0.0806,-76.26826 0.0805,-76.268264 h 0.79647 0.79649 l 0.0816,28.829364 0.0816,28.82937 35.78757,20.68452 c 28.54563,16.49882 36.01645,20.68726 36.91869,20.69807 4.96564,0.0595 11.29717,4.14616 13.65174,8.81152 2.17579,4.31113 1.99257,-6.65295 1.99257,119.23253 v 113.85511 h -0.79883 -0.79883 V 303.60357 c 0,-100.96474 -0.0542,-113.73452 -0.48981,-115.40696 -0.48674,-1.86877 -1.84836,-4.70466 -2.53079,-5.27103 -0.54601,-0.45317 -83.70137,46.37828 -83.82953,47.21114 -0.0733,0.47644 -22.79023,13.39145 -92.31566,52.48325 -50.72012,28.51822 -92.95041,52.14663 -93.84511,52.50759 -1.3037,0.52597 -2.3564,0.6588 -5.30134,0.66894 -3.55101,0.0122 -3.7606,-0.0262 -6.23087,-1.14349 -1.40594,-0.63587 -43.7519,-24.31804 -94.10213,-52.62705 -68.82837,-38.6982 -91.570433,-51.62748 -91.644839,-52.1018 -0.136936,-0.87297 -83.0820855,-47.52298 -83.7491578,-47.1022 -0.7475035,0.47151 -2.2027445,3.32441 -2.7293634,5.35073 -0.442403,1.70227 -0.4949449,13.95606 -0.4949449,115.43088 V 417.13001 H 1.0694003 0.27057069 Z M 514.71684,203.85908 c 21.17698,-11.90596 38.85562,-21.87087 39.28587,-22.14424 l 0.78224,-0.49704 -1.10177,-0.92515 c -1.75589,-1.47436 -4.73006,-2.76339 -7.49245,-3.24729 -2.52893,-0.44302 -2.935,-0.66669 -38.00579,-20.93535 -19.49722,-11.26816 -35.56568,-20.48756 -35.70768,-20.48756 -0.14197,0 -0.25815,20.71886 -0.25815,46.04191 v 46.04191 l 1.99707,-1.1 c 1.09839,-0.605 19.32369,-10.84123 40.50066,-22.74719 z M 88.780892,181.47527 c 0,-25.21905 -0.07671,-45.85282 -0.170467,-45.85282 -0.09376,0 -16.234109,9.24716 -35.86745,20.54925 -34.95345,20.12123 -35.746899,20.55727 -38.093471,20.93421 -2.586947,0.41556 -5.6058148,1.7254 -7.2731675,3.15571 l -1.0422959,0.89412 40.9837764,23.05273 c 22.541077,12.67901 41.091619,23.06779 41.223426,23.08618 0.131807,0.0184 0.239649,-20.60033 0.239649,-45.81938 z"
     id="path150" />
  <path
     style="fill:#ffffff;stroke-width:0.319532"
     d="m 201.92322,492.06197 v -0.80058 l 171.18918,-0.003 c 116.10588,-0.002 171.84295,-0.1085 173.221,-0.33211 5.94578,-0.96479 10.7956,-5.42328 12.33715,-11.34167 0.42268,-1.62263 0.48927,-6.00029 0.48927,-32.16666 v -30.28839 h 0.80496 0.80494 l -0.086,31.23423 -0.086,31.23424 -0.71843,1.90469 c -1.82804,4.84637 -5.60028,8.61313 -10.49097,10.47577 l -1.8914,0.72035 -172.78685,0.0816 -172.78684,0.0816 z"
     id="path152" />
  <path
     style="fill:#ffffff;stroke-width:0.319532"
     d="M 13.170111,492.36284 C 7.1357423,490.89991 2.0545983,485.76563 0.62015432,479.68165 c -0.39824149,-1.68909 -0.47236614,-6.7115 -0.47635421,-32.276 l -0.004723,-30.27564 H 0.93790669 1.7367363 l 0.00241,29.63657 c 0.00156,19.18625 0.1208795,30.36676 0.3383762,31.70734 0.8762464,5.40089 4.6249567,9.83368 10.0697895,11.90736 l 1.891398,0.72035 93.86248,0.0841 93.86248,0.0841 v 0.79462 0.79461 l -93.38318,-0.0266 c -78.445184,-0.0224 -93.675472,-0.0975 -95.210382,-0.4696 z"
     id="path154" />
  <path
     style="fill:#ffffff;stroke-width:0.319532"
     d="m 88.751385,45.754117 0.08767,-30.435408 0.861233,-2.358414 C 91.757803,7.3259488 96.025105,3.1177377 101.78009,1.0477606 L 103.85705,0.30071234 279.4398,0.2129687 C 439.12057,0.1331717 455.23245,0.1713424 457.3403,0.63443347 463.85649,2.0660345 469.154,6.8451457 471.47103,13.382349 l 0.79956,2.255892 0.0954,30.275642 0.0954,30.275643 h -0.9708 -0.97084 l -0.004,-29.956111 C 470.51281,21.29053 470.43581,15.990223 470.05566,14.561874 468.57361,8.993642 464.11026,4.3554973 458.55063,2.6062819 L 456.30068,1.8983716 H 280.55816 c -169.69554,0 -175.80848,0.020216 -177.65971,0.5875248 -4.931296,1.5112009 -8.587868,4.5731311 -10.688599,8.9503916 -0.687417,1.432361 -1.403537,3.457491 -1.591378,4.500287 -0.226013,1.254717 -0.341527,11.764949 -0.341527,31.074472 v 29.178479 h -0.806615 -0.806614 z"
     id="path156" />
</svg>
